<?xml version="1.0" encoding="UTF-8" standalone="no"?>
<svg
   xmlns:dc="http://purl.org/dc/elements/1.1/"
   xmlns:cc="http://creativecommons.org/ns#"
   xmlns:rdf="http://www.w3.org/1999/02/22-rdf-syntax-ns#"
   xmlns:svg="http://www.w3.org/2000/svg"
   xmlns="http://www.w3.org/2000/svg"
   xmlns:sodipodi="http://sodipodi.sourceforge.net/DTD/sodipodi-0.dtd"
   xmlns:inkscape="http://www.inkscape.org/namespaces/inkscape"
   version="1.1"
   id="svg2"
   width="3689.3333"
   height="3753.3333"
   viewBox="0 0 3689.3333 3753.3333"
   sodipodi:docname="logo.svg"
   inkscape:version="1.0.2 (e86c870879, 2021-01-15)">
  <metadata
     id="metadata8">
    <rdf:RDF>
      <cc:Work
         rdf:about="">
        <dc:format>image/svg+xml</dc:format>
        <dc:type
           rdf:resource="http://purl.org/dc/dcmitype/StillImage" />
        <dc:title />
      </cc:Work>
    </rdf:RDF>
  </metadata>
  <defs
     id="defs6" />
  <sodipodi:namedview
     pagecolor="#ffffff"
     bordercolor="#666666"
     borderopacity="1"
     objecttolerance="10"
     gridtolerance="10"
     guidetolerance="10"
     inkscape:pageopacity="0"
     inkscape:pageshadow="2"
     inkscape:window-width="1920"
     inkscape:window-height="1016"
     id="namedview4"
     showgrid="false"
     inkscape:zoom="0.057015985"
     inkscape:cx="-1980.5947"
     inkscape:cy="1458.9075"
     inkscape:window-x="0"
     inkscape:window-y="27"
     inkscape:window-maximized="1"
     inkscape:current-layer="a914-5"
     inkscape:document-rotation="0" />
  <g
     inkscape:groupmode="layer"
     inkscape:label="Image"
     id="g10">
    <a
       id="a914"
       style="fill:#40aeff;fill-opacity:1">
      <path
         id="path871-7"
         style="fill:#40aeff;stroke:#000000;stroke-width:1.10106;stroke-dasharray:1.10106, 3.30319999999999991;fill-opacity:1"
         d="m 1289.6903,1239.2678 c 0,-120.8229 -64.4582,-232.4679 -169.0939,-292.87934 -104.6357,-60.41148 -233.55228,-60.41148 -338.18801,0 -104.63571,60.41144 -169.09396,172.05644 -169.09397,292.87934 m 0,0 v 1757.2669 c 2e-5,120.8229 64.45827,232.4678 169.09397,292.8793 104.63573,60.4115 233.55231,60.4115 338.18801,0 104.6357,-60.4115 169.0939,-172.0564 169.0939,-292.8793 l 0,-1757.2669"
         sodipodi:nodetypes="cssccssc" />
    </a>
    <a
       id="a914-5"
       style="fill:#40aeff;fill-opacity:1"
       transform="translate(901.07052,-545.40157)">
      <path
         id="path871-7-3"
         style="fill:#40aeff;fill-opacity:1;stroke:#000000;stroke-width:1.10106;stroke-dasharray:1.10106, 3.3032"
         d="m 1289.6903,1157.3533 c 0,-120.8228 -64.4582,-232.4678 -169.0939,-292.8792 -104.6357,-60.4115 -233.55228,-60.4115 -338.18801,0 -104.63571,60.4114 -169.09396,172.0564 -169.09397,292.8792 m 0,0 v 657.2669 c 0,120.8229 64.45827,232.4678 169.09397,292.8793 104.63573,60.4115 233.55231,60.4115 338.18801,0 104.6357,-60.4115 169.0939,-172.0564 169.0939,-292.8793 v -657.2669"
         sodipodi:nodetypes="cssccsscsc" />
    </a>
    <a
       id="a914-56"
       style="fill:#40aeff;fill-opacity:0.96078432"
       transform="translate(1780,3.5287082e-5)">
      <path
         id="path871-7-2"
         style="fill:#40aeff;fill-opacity:0.96078432;stroke:#000000;stroke-width:1.10106;stroke-dasharray:1.10106, 3.30319999999999991"
         d="m 1289.6903,1239.2678 c 0,-120.8229 -64.4582,-232.4679 -169.0939,-292.87934 -104.6357,-60.41148 -233.55228,-60.41148 -338.18801,0 -104.63571,60.41144 -169.09396,172.05644 -169.09397,292.87934 m 0,0 v 1757.2669 c 2e-5,120.8229 64.45827,232.4678 169.09397,292.8793 104.63573,60.4115 233.55231,60.4115 338.18801,0 104.6357,-60.4115 169.0939,-172.0564 169.0939,-292.8793 V 1239.2678"
         sodipodi:nodetypes="cssccssc" />
    </a>
  </g>
</svg>
